<svg width="96" height="113" viewBox="0 0 96 113" fill="none" xmlns="http://www.w3.org/2000/svg">
<path fill-rule="evenodd" clip-rule="evenodd" d="M83.9769 35.7917C76.0978 22.1123 65.7505 11.5642 55.3898 5.5686C45.0293 -0.427002 34.6558 -1.87012 26.7252 2.65991L11.9509 11.2661C-3.91046 20.3262 -3.9939 49.8491 11.7642 77.2078C19.6432 90.8872 29.9908 101.436 40.3515 107.431C50.712 113.427 61.0853 114.87 69.0159 110.34L83.7904 101.734C99.6517 92.6736 99.7354 63.1506 83.9769 35.7917ZM67.0029 89.498C63.2438 89.259 59.2038 87.8916 55.1661 85.5549C50.0184 82.5762 44.877 78.0256 40.3262 72.2461L65.3478 57.9536C70.1884 70.0647 70.7361 81.8372 67.0029 89.498ZM28.7383 23.5015C25.0054 31.1621 25.5532 42.9348 30.3937 55.0461L15.619 63.6526L55.507 40.8682C50.9335 35.033 45.7568 30.4431 40.575 27.4446C36.5375 25.1079 32.4976 23.7405 28.7383 23.5015Z" transform="translate(0.129211)" fill="#CD2A01"/>
<path d="M0 8.60632L14.7748 0C19.348 5.83495 24.5247 10.4247 29.7065 13.4234C37.1174 17.7121 44.5378 18.745 50.2109 15.5046L35.4361 24.1109C29.7633 27.3513 22.3427 26.3186 14.9317 22.0297C9.74994 19.031 4.57321 14.4413 0 8.60632Z" transform="translate(25.5891 72.1316)" fill="#891D00"/>
<path d="M8.54852 8.60632L23.3233 0C13.6839 5.5061 12.2586 21.7655 18.9381 38.4778L4.09707 46.8954C-2.58286 30.1829 -1.09134 14.1124 8.54852 8.60632Z" transform="translate(11.6516 16.7573)" fill="#891D00"/>
<path d="M72.026 35.7918C64.1469 22.1124 53.7996 11.5643 43.4389 5.56868C33.0784 -0.426943 22.7049 -1.87012 14.7743 2.65981L0 11.2659C7.93057 6.73576 18.3041 8.17915 28.6646 14.175C39.0251 20.1708 49.3726 30.7189 57.2517 44.3981C73.01 71.7569 72.9265 101.28 57.0652 110.34L71.8399 101.733C87.7008 92.6736 87.7845 63.1506 72.026 35.7918Z" transform="translate(12.0801)" fill="#CD2A01"/>
<path fill-rule="evenodd" clip-rule="evenodd" d="M69.202 35.7922C84.9603 63.1511 84.8769 92.6741 69.0156 101.734C61.085 106.264 50.7119 104.821 40.3512 98.8252C29.9904 92.8293 19.6429 82.281 11.7639 68.6016C-3.99402 41.2432 -3.91034 11.7202 11.9508 2.65991C19.8814 -1.87036 30.2549 -0.426758 40.6154 5.56909C50.9759 11.5649 61.323 22.1128 69.202 35.7922ZM20.0707 16.7576C10.4313 22.2637 8.93939 38.3342 15.6188 55.0464L55.5069 32.2622C50.9334 26.4272 45.7567 21.8369 40.5749 18.8386C33.1642 14.55 25.7436 13.5168 20.0707 16.7576ZM65.3477 49.3474C72.0272 66.0598 70.535 82.1301 60.8956 87.6362C55.2228 90.877 47.8024 89.844 40.3915 85.5552C35.2097 82.5564 30.0329 77.9666 25.4597 72.1316L65.3477 49.3474Z" transform="translate(0.129333 8.6062)" fill="#AD2201"/>
</svg>
