<svg width="44" height="44" viewBox="0 0 44 44" fill="none" xmlns="http://www.w3.org/2000/svg">
<path fill-rule="evenodd" clip-rule="evenodd" d="M22 44C9.84973 44 0 34.1501 0 22C0 9.84973 9.84973 0 22 0C34.1503 0 44 9.84973 44 22C44 34.1501 34.1503 44 22 44ZM22 40C31.9411 40 40 31.9412 40 22C40 12.0588 31.9411 4 22 4C12.0589 4 4 12.0588 4 22C4 31.9412 12.0589 40 22 40ZM19.1716 25.657L14.9289 21.4143C14.1479 20.6333 12.8815 20.6333 12.1005 21.4143C11.3195 22.1953 11.3195 23.4617 12.1005 24.2427L17.7573 29.8997C18.5384 30.6807 19.8047 30.6807 20.5858 29.8997L31.8995 18.5859C32.6805 17.8048 32.6805 16.5385 31.8995 15.7574C31.1184 14.9763 29.8521 14.9763 29.071 15.7574L19.1716 25.657Z" fill="#FFC107"/>
</svg>
