<svg width="228" height="59" viewBox="0 0 228 59" fill="none" xmlns="http://www.w3.org/2000/svg">
<mask id="mask0" mask-type="alpha" maskUnits="userSpaceOnUse" x="0" y="1" width="29" height="29">
<path fill-rule="evenodd" clip-rule="evenodd" d="M0 0H28.1216V27.96H0V0Z" transform="translate(0 1.1653)" fill="white"/>
</mask>
<g mask="url(#mask0)">
<path fill-rule="evenodd" clip-rule="evenodd" d="M19.664 6.733C18.802 6.572 17.885 6.465 16.323 6.465C11.314 6.465 9.319 10.343 9.319 14.222C9.319 17.993 11.098 21.333 16.377 21.333C20.848 21.333 22.518 20.686 25.481 19.609C27.637 20.418 28.122 22.519 28.122 24.511C24.512 26.774 19.664 27.96 15.139 27.96C7.811 27.96 0 24.997 0 14.222C0 5.333 7.111 0 16.647 0C20.04 0 23.65 0.916 26.935 2.209V10.936C26.935 11.691 25.859 12.283 24.135 12.283C22.627 12.283 20.526 11.853 20.31 10.558L19.664 6.733Z" transform="translate(-0.000396729 1.1653)" fill="#231F20"/>
</g>
<path fill-rule="evenodd" clip-rule="evenodd" d="M20.741 14.008C20.741 10.129 18.748 6.466 15.031 6.466C11.313 6.466 9.321 10.129 9.321 14.008C9.321 17.887 11.313 21.495 15.031 21.495C18.748 21.495 20.741 17.887 20.741 14.008V14.008ZM15.031 0C23.488 0 30.061 4.796 30.061 14.008C30.061 23.22 23.488 27.96 15.031 27.96C6.573 27.96 0 23.22 0 14.008C0 4.796 6.573 0 15.031 0V0Z" transform="translate(29.197 1.1648)" fill="#231F20"/>
<path fill-rule="evenodd" clip-rule="evenodd" d="M5.925 6.734L1.777 6.087C0.7 5.926 0 4.472 0 2.855C0 1.347 0.429 0 1.4 0H11.312C14.491 0 15.083 1.508 15.083 4.632V16.107C15.083 18.316 15.783 20.471 18.962 20.471C21.063 20.471 24.295 19.555 24.295 15.085V6.572L20.848 5.98C19.77 5.818 19.286 4.255 19.286 2.801C19.286 1.347 19.662 0 20.578 0H36.685C37.655 0 38.031 1.293 38.031 2.693C38.031 4.202 37.548 5.764 36.469 5.98L33.453 6.572V20.255L37.602 20.901C38.68 21.063 39.38 22.518 39.38 24.134C39.38 25.642 38.947 26.989 37.977 26.989H28.605C25.966 26.989 24.565 26.18 24.565 23.596C22.464 26.18 18.962 27.474 15.837 27.474C11.15 27.474 5.925 26.18 5.925 17.293V6.734Z" transform="translate(58.7181 1.6507)" fill="#231F20"/>
<path fill-rule="evenodd" clip-rule="evenodd" d="M5.928 20.903V7.219L1.779 6.572C0.7 6.412 0 4.958 0 3.341C0 1.833 0.432 0.485 1.4 0.485H10.775C13.415 0.485 14.816 1.508 14.816 4.095C17.078 1.508 19.881 0 23.652 0C25.59 0 26.022 0.054 27.744 0.431C28.123 1.239 28.285 2.209 28.285 3.233C28.285 5.171 27.585 7.381 26.452 8.296L21.657 7.219C17.941 7.219 15.086 7.65 15.086 12.607V20.903L18.532 21.495C19.611 21.657 20.094 23.219 20.094 24.674C20.094 26.128 19.719 27.474 18.803 27.474H2.695C1.724 27.474 1.349 26.182 1.349 24.782C1.349 23.273 1.832 21.711 2.911 21.495L5.928 20.903Z" transform="translate(98.6335 1.1653)" fill="#231F20"/>
<path fill-rule="evenodd" clip-rule="evenodd" d="M0 18.802C0 18.047 0.967 17.454 2.692 17.454C4.2 17.454 6.141 17.941 6.462 19.179L7.163 21.872C8.671 22.358 10.396 22.735 12.442 22.735C15.729 22.735 16.537 22.087 16.537 21.28C16.537 20.15 15.675 19.449 9.858 17.24C2.962 14.654 0.43 12.175 0.43 8.135C0.43 2.694 6.033 0 13.845 0C18.154 0 21.925 0.647 25.319 1.779V8.89C25.319 9.644 24.241 10.237 22.517 10.237C21.008 10.237 19.178 9.752 18.854 8.512L18.154 5.765C17.238 5.495 15.891 5.226 14.437 5.226C11.15 5.226 10.234 6.466 10.234 7.273C10.234 8.729 11.312 9.105 15.783 10.667C24.025 13.576 26.341 16.162 26.341 20.041C26.341 25.966 20.309 27.96 12.767 27.96C7.001 27.96 2.746 27.044 0 25.806V18.802Z" transform="translate(127.456 1.1647)" fill="#231F20"/>
<path fill-rule="evenodd" clip-rule="evenodd" d="M5.928 20.903V7.219L1.779 6.572C0.7 6.412 0 4.958 0 3.341C0 1.833 0.432 0.485 1.4 0.485H10.774C13.415 0.485 14.815 1.239 14.815 3.825C16.916 1.239 20.419 0 23.541 0C28.228 0 33.456 1.294 33.456 10.182V20.741L37.602 21.386C38.681 21.549 39.381 23.004 39.381 24.62C39.381 26.128 38.949 27.474 37.981 27.474H28.069C24.89 27.474 24.295 25.965 24.295 22.84V11.366C24.295 9.158 23.595 7.004 20.419 7.004C18.316 7.004 15.086 7.866 15.086 12.337V20.903L18.532 21.495C19.611 21.657 20.095 23.219 20.095 24.674C20.095 26.128 19.717 27.474 18.803 27.474H2.695C1.724 27.474 1.349 26.182 1.349 24.782C1.349 23.273 1.833 21.711 2.911 21.495L5.928 20.903Z" transform="translate(188.55 1.1653)" fill="#231F20"/>
<mask id="mask1" mask-type="alpha" maskUnits="userSpaceOnUse" x="0" y="0" width="228" height="59">
<path fill-rule="evenodd" clip-rule="evenodd" d="M0 58.735H227.931V0H0V58.735Z" fill="white"/>
</mask>
<g mask="url(#mask1)">
<path fill-rule="evenodd" clip-rule="evenodd" d="M0 21.803H227.931V0H0V21.803Z" transform="translate(0 36.932)" fill="#76BC21"/>
<path fill-rule="evenodd" clip-rule="evenodd" d="M2.918 8.405H7.485V10.943H0V0H2.918V8.405Z" transform="translate(8.4482 42.8635)" fill="white"/>
<path fill-rule="evenodd" clip-rule="evenodd" d="M5.56 2.188H5.531L4.203 6.945H6.902L5.56 2.188ZM3.576 9.061L3.036 10.943H0L3.284 0H7.72L11.047 10.943H8.07L7.501 9.061H3.576Z" transform="translate(20.2256 42.8637)" fill="white"/>
<path fill-rule="evenodd" clip-rule="evenodd" d="M4.932 0L8.172 8.42L8.186 8.405L8.011 0H10.93V10.943H5.953L2.758 2.51L2.744 2.539L2.918 10.943H0V0H4.932Z" transform="translate(36.1339 42.8632)" fill="white"/>
<path fill-rule="evenodd" clip-rule="evenodd" d="M7.077 3.486C7.077 2.567 6.07 2.392 5.195 2.392C3.094 2.392 3.006 3.049 3.006 4.814V6.594C3.006 8.535 3.677 8.798 5.195 8.798C6.683 8.798 7.077 8.463 7.077 6.945H5.063V4.917H10.039V6.829C10.039 10.52 9.105 11.191 5.195 11.191C1.751 11.191 0 10.548 0 7.004V4.172C0 0.553 1.985 0 5.195 0C8.026 0 10.039 0.509 10.039 3.486H7.077Z" transform="translate(52.5089 42.762)" fill="white"/>
<path fill-rule="evenodd" clip-rule="evenodd" d="M2.918 0V7.105C2.918 8.317 3.473 8.551 4.713 8.551C5.953 8.551 6.508 8.317 6.508 7.105V0H9.426V7.296C9.426 9.966 8.594 11.09 4.713 11.09C0.627 11.09 0 9.922 0 7.296V0H2.918Z" transform="translate(68.0527 42.8632)" fill="white"/>
<path fill-rule="evenodd" clip-rule="evenodd" d="M5.559 2.188H5.53L4.202 6.945H6.901L5.559 2.188ZM3.575 9.061L3.035 10.943H0L3.283 0H7.719L11.045 10.943H8.069L7.5 9.061H3.575Z" transform="translate(82.399 42.8637)" fill="white"/>
<path fill-rule="evenodd" clip-rule="evenodd" d="M7.077 3.486C7.077 2.567 6.07 2.392 5.195 2.392C3.093 2.392 3.006 3.049 3.006 4.814V6.594C3.006 8.535 3.677 8.798 5.195 8.798C6.683 8.798 7.077 8.463 7.077 6.945H5.063V4.917H10.039V6.829C10.039 10.52 9.105 11.191 5.195 11.191C1.751 11.191 0 10.548 0 7.004V4.172C0 0.553 1.984 0 5.195 0C8.025 0 10.039 0.509 10.039 3.486H7.077Z" transform="translate(98.0734 42.762)" fill="white"/>
<path fill-rule="evenodd" clip-rule="evenodd" d="M2.918 4.393H7.587V6.42H2.918V8.551H7.996V10.944H0V0H7.894V2.393H2.918V4.393Z" transform="translate(113.617 42.8628)" fill="white"/>
<path fill-rule="evenodd" clip-rule="evenodd" d="M6.275 3.53C6.275 2.421 5.778 2.392 4.641 2.392C3.065 2.392 2.918 2.727 2.918 3.341C2.918 4.114 3.254 4.187 4.494 4.435L7.296 4.989C8.74 5.266 9.382 6.084 9.382 7.543C9.382 10.578 8.755 11.191 4.641 11.191C1.561 11.191 0 10.826 0 7.543H2.801C2.801 8.681 3.21 8.798 4.641 8.798C6.011 8.798 6.464 8.652 6.464 7.732C6.464 7.28 6.347 6.843 5.136 6.668L2.349 6.259C1.153 6.084 0 5.471 0 3.341C0 0.349 1.78 0 4.641 0C7.501 0 9.076 0.436 9.076 3.078V3.53H6.275Z" transform="translate(136.282 42.7619)" fill="white"/>
<path fill-rule="evenodd" clip-rule="evenodd" d="M6.624 4.027V3.603C6.624 2.727 5.822 2.538 4.83 2.538C3.166 2.538 3.005 3.063 3.005 4.625V6.332C3.005 7.965 3.079 8.652 4.83 8.652C6.041 8.652 6.624 8.564 6.624 7.28V6.96H9.631V7.28C9.631 10.359 8.565 11.191 5.15 11.191C2.174 11.191 0 10.987 0 6.989V4.158C0 0.539 1.94 0 5.15 0C8.055 0 9.631 0.801 9.631 3.603V4.027H6.624Z" transform="translate(150.876 42.762)" fill="white"/>
<path fill-rule="evenodd" clip-rule="evenodd" d="M2.918 4.115H6.726V0H9.645V10.943H6.726V6.653H2.918V10.943H0V0H2.918V4.115Z" transform="translate(166.012 42.8634)" fill="white"/>
<path fill-rule="evenodd" clip-rule="evenodd" d="M7.121 6.799V4.333C7.121 2.713 6.581 2.538 5.064 2.538C3.546 2.538 3.007 2.699 3.007 4.333V6.799C3.007 8.433 3.546 8.653 5.064 8.653C6.581 8.653 7.121 8.433 7.121 6.799V6.799ZM0 7.12V4.028C0 0.656 2.101 0 5.064 0C8.026 0 10.127 0.656 10.127 4.028V7.12C10.127 10.491 8.026 11.192 5.064 11.192C2.101 11.192 0 10.491 0 7.12V7.12Z" transform="translate(181.16 42.7615)" fill="white"/>
<path fill-rule="evenodd" clip-rule="evenodd" d="M7.121 6.799V4.333C7.121 2.713 6.581 2.538 5.064 2.538C3.546 2.538 3.007 2.699 3.007 4.333V6.799C3.007 8.433 3.546 8.653 5.064 8.653C6.581 8.653 7.121 8.433 7.121 6.799V6.799ZM0 7.12V4.028C0 0.656 2.101 0 5.064 0C8.026 0 10.128 0.656 10.128 4.028V7.12C10.128 10.491 8.026 11.192 5.064 11.192C2.101 11.192 0 10.491 0 7.12V7.12Z" transform="translate(196.498 42.7615)" fill="white"/>
<path fill-rule="evenodd" clip-rule="evenodd" d="M2.918 8.405H7.485V10.943H0V0H2.918V8.405Z" transform="translate(212.13 42.8635)" fill="white"/>
<path fill-rule="evenodd" clip-rule="evenodd" d="M2.896 0L0 10.54L9.382 4.517" transform="translate(157.996 22.4716)" fill="#76BC21"/>
<path fill-rule="evenodd" clip-rule="evenodd" d="M16.15 0C7.062 0 0 5.152 0 15.05C0 24.948 7.062 30.041 16.15 30.041C19.8 30.041 23.122 29.217 25.793 27.592L22.371 25.396C20.55 26.221 18.435 26.644 16.15 26.644C9.117 26.644 3.652 22.703 3.652 15.044C3.652 7.384 9.117 3.396 16.15 3.396C23.181 3.396 28.647 7.384 28.647 15.044C28.647 18.487 27.535 21.172 25.68 23.093L26.742 26.957C30.167 24.468 32.299 20.485 32.299 15.05C32.299 5.152 25.236 0 16.15 0" transform="translate(155.956)" fill="#76BC21"/>
<path fill-rule="evenodd" clip-rule="evenodd" d="M8.519 17.018C3.821 17.018 0 13.197 0 8.499C0 6.243 0.889 4.194 2.327 2.668C2.254 3.033 2.259 3.419 2.413 3.803C2.995 5.259 2.777 4.532 3.356 5.988C3.936 7.445 4.889 6.789 5.551 6.935C6.212 7.08 6.564 7.445 6.783 7.517C7.001 7.59 7.657 7.881 7.746 8.632C7.834 9.383 7.583 9.338 7.158 9.702C6.731 10.067 7.22 10.503 7.158 11.086C7.096 11.669 8.02 11.305 9.186 12.106C10.351 12.908 9.55 13.199 9.331 13.635C9.113 14.073 8.603 13.854 7.746 13.854C6.888 13.854 7.746 14.364 7.746 14.364C7.746 14.364 8.094 14.801 8.519 14.728C8.944 14.655 9.551 14.582 9.985 14.437C10.418 14.29 11.007 13.926 11.808 13.781C12.609 13.635 13.557 11.742 14.503 11.159C15.45 10.577 14.94 10.066 14.94 9.484C14.94 8.901 14.43 9.484 13.92 9.484C13.411 9.484 13.119 9.411 12.245 8.632C11.371 7.854 11.589 8.1 10.837 7.663C10.084 7.225 9.259 7.371 8.894 7.371C8.53 7.371 7.219 7.225 6.272 6.57C5.326 5.914 4.67 5.405 4.961 4.968C5.252 4.531 4.961 4.968 5.551 4.968C6.139 4.968 6.903 4.871 7.158 5.186C7.249 5.299 7.054 5.665 7.158 5.769C7.398 6.009 8.259 5.989 8.519 5.769C8.675 5.637 8.603 5.259 8.676 4.968C8.749 4.676 8.603 4.24 8.676 3.583C8.749 2.928 8.676 3.583 8.898 3.292C9.119 3 9.769 2.928 10.352 2.564C10.934 2.2 10.861 2.273 10.789 1.763C10.716 1.252 10.789 1.252 10.789 1.252C10.789 1.252 9.841 0.816 9.552 0.743C9.275 0.673 8.934 0.056 8.904 0C13.422 0.204 17.037 3.932 17.037 8.499C17.037 13.197 13.216 17.018 8.519 17.018" transform="translate(163.546 6.5288)" fill="#76BC21"/>
</g>
</svg>
