<svg width="154" height="97" viewBox="0 0 154 97" fill="none" xmlns="http://www.w3.org/2000/svg">
<path d="M153.7 53.7148V53.7148V53.7148C153.688 52.9837 153.678 52.3523 153.562 51.4778C153.422 50.4243 153.278 49.8635 153.095 49.1528C152.812 48.0514 152.14 46.4641 151.613 45.6021C151.329 45.1378 150.95 44.5166 150.616 44.087C150.423 43.8385 150.169 43.5035 149.961 43.266C149.672 42.9343 149.279 42.4954 148.961 42.1907C148.401 41.656 147.621 40.9746 147.002 40.5099C146.34 40.0139 145.402 39.4289 144.697 38.9954C144.59 38.934 143.918 38.5577 143.915 38.5559C143.57 38.369 143.248 38.2011 142.799 37.9891C142.245 37.7275 140.64 37.044 139.444 36.6506C137.828 36.1186 136.925 35.8719 135.242 35.5031C134.364 35.3103 132.525 34.9573 130.083 34.7597C127.812 34.5759 126.157 34.6316 125.05 34.6714C114.511 28.6032 103.973 22.5356 93.4339 16.4674C93.4081 16.2965 93.3798 16.1189 93.3465 15.9201C93.2784 15.5124 93.0622 14.5591 92.771 13.7382C92.463 12.8697 92.1307 12.1123 91.7834 11.4869C91.5868 11.133 90.9894 10.057 90.1846 9.07984C89.4638 8.20504 89.0558 7.77573 88.1988 6.99074C87.8049 6.62999 87.336 6.25875 86.7927 5.82884C86.5798 5.66029 86.2898 5.45012 86.0359 5.27917C85.1971 4.71574 84.1302 4.1017 83.0312 3.55024C81.7752 2.92004 80.5816 2.47545 80.0722 2.28624C77.3755 1.28301 74.4547 0.718377 73.5571 0.58575C73.0422 0.509707 72.3581 0.388158 71.8402 0.33367C71.3185 0.279183 70.6236 0.195655 70.1009 0.151646C69.5753 0.107636 68.8719 0.0735067 68.3454 0.0399758C67.2869 -0.0273853 65.87 0.00554677 64.8097 0.0294974C64.4615 0.0375807 61.3082 0.129192 57.7896 0.886031C57.2508 1.00189 55.9885 1.27373 54.3947 1.7758C53.4356 2.07787 52.1865 2.57036 51.2535 2.94578C51.3429 2.90686 51.4363 2.89549 51.5327 2.91285C51.4363 2.89519 51.3426 2.90686 51.2535 2.94578C51.2535 2.94578 49.8116 3.57209 49.1941 3.84034C47.9582 4.37713 46.3108 5.09326 45.0749 5.62975C44.4571 5.8983 43.633 6.25606 43.0155 6.52431C41.7796 7.0611 40.1322 7.77722 38.8963 8.31402C38.2785 8.58226 37.4544 8.94032 36.8369 9.20857C35.601 9.74536 33.9535 10.4615 32.7176 10.9983C31.4817 11.5351 29.8343 12.2512 28.5984 12.788C27.9806 13.0565 27.1565 13.4143 26.539 13.6825C25.3031 14.2193 23.6557 14.9355 22.4198 15.4723C21.802 15.7405 20.9779 16.0986 20.3604 16.3668C19.1245 16.9036 17.477 17.6197 16.2411 18.1565C15.6233 18.4251 14.7993 18.7828 14.1818 19.0511C12.9459 19.5879 11.2984 20.304 10.0625 20.8408C10.1667 20.7953 10.2769 20.7923 10.3906 20.824C10.2769 20.792 10.1667 20.7956 10.0625 20.8408C9.35648 21.1692 8.41566 21.6132 7.74293 22.0048C7.07349 22.3943 6.21494 22.973 5.59683 23.4394C4.53204 24.2427 3.41172 25.3833 2.67294 26.4165C1.73303 27.7305 1.14885 28.905 0.657127 30.4698C0.428078 31.1991 0.255466 32.0763 0.170211 32.6547C0.110772 33.0583 0.0624405 33.6005 0.0324211 34.0073C0.0126082 34.2753 0.0114074 34.6336 0.00510331 34.9022L0 36.0626V36.0626V36.0626C0 36.2961 0.00690448 36.7829 0.0501326 37.3574C0.0513333 37.3805 0.0525341 37.4068 0.0543353 37.429C0.0687446 37.6559 0.105068 37.9574 0.135088 38.1831C0.137789 38.2041 0.141392 38.2283 0.144094 38.2505C0.144694 38.2553 0.145294 38.2598 0.145895 38.2649C0.146195 38.2679 0.146795 38.2706 0.147096 38.2735C0.175614 38.4846 0.212238 38.7352 0.251864 38.9298C0.253665 38.9391 0.256366 38.9507 0.258468 38.9603C0.371041 39.5765 0.494421 40.0531 0.594986 40.3893C0.685645 40.7186 0.819232 41.1144 0.983138 41.5347C1.01166 41.6093 1.03927 41.6787 1.06659 41.7467C1.0723 41.7608 1.0777 41.7745 1.0834 41.7886C1.14284 41.9344 1.19988 42.0673 1.25481 42.1886C1.26352 42.2083 1.27283 42.2278 1.28183 42.2476C1.31035 42.3101 1.33857 42.3709 1.36619 42.4284C1.49167 42.6963 1.62465 42.9568 1.76335 43.2029C2.08275 43.7786 2.39736 44.2307 2.64051 44.575C3.09681 45.2219 3.70651 45.8689 3.91214 46.0814C3.91484 46.0844 3.91844 46.0883 3.92115 46.091C3.92925 46.0994 3.93916 46.1096 3.94756 46.118C3.95147 46.1219 3.95237 46.1231 3.95567 46.1261C4.18352 46.3635 4.48371 46.6572 4.72837 46.8631C4.73347 46.8676 4.73708 46.8703 4.74218 46.8748C4.76199 46.8925 4.78361 46.9122 4.80252 46.929C5.03487 47.1311 5.27443 47.3245 5.51368 47.5179C5.61154 47.5984 5.6983 47.6685 5.77545 47.7298C5.77605 47.7304 5.77665 47.731 5.77755 47.7313C5.83969 47.7822 5.90243 47.8328 5.96637 47.8816C5.98709 47.8972 6.003 47.9089 6.02281 47.9238C6.22034 48.0747 6.35152 48.1649 6.50522 48.269C6.61239 48.3418 6.74118 48.4247 6.87987 48.5115C6.90148 48.5253 6.91859 48.5364 6.94111 48.5511C6.96933 48.5693 7.03027 48.6064 7.10772 48.6531C7.12573 48.6642 7.14014 48.6735 7.15845 48.6849C7.26652 48.7507 7.37549 48.8148 7.48446 48.8789C7.5469 48.9157 7.60994 48.9516 7.67238 48.9882C7.71201 49.0112 7.74983 49.0334 7.78646 49.0543C7.79396 49.0588 7.80147 49.0633 7.80927 49.0675C7.81107 49.0687 7.81377 49.0699 7.81558 49.0711C7.83509 49.0825 7.8558 49.0941 7.87351 49.1046C7.90173 49.1205 7.93595 49.1381 7.96507 49.1546C8.38835 49.3896 8.99564 49.7183 9.81397 50.0869C9.8503 50.1043 9.89142 50.1237 9.92685 50.1402C10.478 50.3967 11.7214 50.8728 12.2122 51.0269C12.241 51.0359 12.2756 51.0464 12.3056 51.0554C12.6406 51.1671 12.9939 51.2787 13.3665 51.3883C13.8 51.5161 14.2307 51.6293 14.654 51.7323C15.0148 51.826 15.4762 51.9224 15.8293 51.9952C16.2054 52.0727 16.7082 52.1721 17.088 52.2278C17.1303 52.2341 17.1763 52.2403 17.2201 52.2466C18.2215 52.4074 19.0741 52.5017 19.6571 52.5541C20.0476 52.5963 20.5712 52.6268 20.9635 52.6478C21.0467 52.6523 21.1376 52.6556 21.2304 52.6592C21.5531 52.6739 21.8845 52.6858 22.2294 52.6924C22.245 52.693 22.2631 52.6936 22.2784 52.6942C23.0703 52.7346 24.1291 52.6879 24.9207 52.6436C25.054 52.6361 25.184 52.628 25.3112 52.6194C25.4151 52.6125 25.5196 52.6047 25.6246 52.5969C25.8024 52.5834 25.9744 52.5694 26.1374 52.555C26.2337 52.5463 26.3301 52.5373 26.4271 52.5278C26.6465 52.5062 26.8479 52.4846 27.032 52.4634C27.1184 52.4535 27.2046 52.443 27.2916 52.4319C27.3889 52.4197 27.4816 52.4083 27.5648 52.3969C27.635 52.3876 27.7338 52.3742 27.8449 52.3583C27.9674 52.3412 28.0901 52.3236 28.2138 52.3047C28.3756 52.2802 28.5614 52.2505 28.7608 52.217C28.883 52.1963 29.0054 52.1751 29.1282 52.1532C29.3302 52.117 29.5425 52.0775 29.7679 52.0323C29.8481 52.0164 29.9282 51.9993 30.0084 51.9829C30.0651 51.9709 30.1198 51.9604 30.178 51.9478C30.2428 51.9341 30.3176 51.9152 30.3857 51.8999C31.1491 51.7311 31.9227 51.5347 32.7047 51.2976C32.7627 51.2799 32.8188 51.2437 32.8719 51.1892C32.8182 51.2434 32.7624 51.2799 32.7047 51.2976C35.695 50.3908 38.6843 49.4836 41.6743 48.5765C42.3878 49.3187 43.2863 50.0177 44.3799 50.6473C49.7156 53.7196 57.8437 54.1642 63.9823 52.0008C66.7468 53.5927 69.5116 55.1845 72.2761 56.776L72.2587 62.8424C72.2518 65.2204 73.8257 67.6017 76.9769 69.4159C77.616 69.7842 78.3037 70.1045 79.0146 70.3973C78.9819 70.4398 78.9462 70.4853 78.9158 70.5257C78.7642 70.7266 78.5808 71.0086 78.4502 71.2242C77.9174 72.1029 77.5941 72.7657 77.2573 73.669C76.843 74.7803 76.6443 75.859 76.6425 75.8697C76.5743 76.2595 76.4831 76.7799 76.4443 77.1732C76.3747 77.8876 76.3726 77.9783 76.3522 78.8459C76.3516 79.0564 76.3603 79.2665 76.3774 79.4764V79.4764C76.3609 79.2665 76.3516 79.0564 76.3522 78.8459L76.3492 80.0057C76.3492 80.2542 76.3564 80.4925 76.3666 80.7257C76.3789 81.0709 76.4011 81.4032 76.4479 81.8077C76.45 81.8289 76.4527 81.8499 76.4548 81.8708C76.46 81.9128 76.4657 81.9577 76.4711 82.0014C76.4999 82.237 76.5323 82.4627 76.568 82.6759C76.5725 82.7034 76.5755 82.7265 76.58 82.7549C76.6206 83.0076 76.6659 83.2271 76.7259 83.4794C76.7794 83.7163 76.834 83.9333 76.8874 84.1291C76.8904 84.142 76.8934 84.1527 76.8967 84.1659C76.931 84.3003 76.9793 84.4563 77.0285 84.6102C77.0585 84.7063 77.0874 84.7946 77.1138 84.8749C77.1228 84.9033 77.133 84.9338 77.1414 84.9602C77.2146 85.1886 77.3227 85.4793 77.4221 85.7122C77.6058 86.1628 77.8132 86.5969 78.0336 87.0047C78.0489 87.0343 78.0654 87.0675 78.0804 87.0957C78.2317 87.3819 78.4574 87.7405 78.6385 88.0217C78.6403 88.0247 78.6424 88.028 78.6445 88.0307C78.6523 88.0426 78.661 88.0567 78.6688 88.0687C78.7021 88.1205 78.7456 88.18 78.7853 88.2372C78.9074 88.4169 79.0278 88.5857 79.1461 88.7429C79.1572 88.7582 79.1791 88.7878 79.2112 88.8306C79.2425 88.8713 79.2734 88.9117 79.3037 88.9504C79.488 89.1854 79.8209 89.588 80.2826 90.0638C80.3021 90.0841 80.3214 90.1039 80.3415 90.1245C80.3889 90.1727 80.4384 90.2221 80.4883 90.2721C80.5492 90.3329 80.6125 90.3946 80.6786 90.4577C80.7326 90.5098 80.787 90.5616 80.8437 90.6146C80.8767 90.6452 80.9115 90.6769 80.9458 90.7083C81.0187 90.7751 81.0932 90.8422 81.1703 90.9095C81.1949 90.9311 81.2189 90.952 81.2439 90.9739C81.3447 91.0616 81.4483 91.1493 81.5552 91.237C81.5648 91.2448 81.5732 91.2523 81.5828 91.2604C81.5846 91.2619 81.5873 91.2637 81.5894 91.2655C81.5963 91.2712 81.6026 91.2766 81.6092 91.2819C82.1841 91.749 82.7097 92.1232 83.2008 92.4427C83.2098 92.4489 83.2203 92.4561 83.229 92.4624C83.3818 92.5675 83.571 92.6813 83.7565 92.7911C83.8664 92.8576 83.9747 92.9217 84.0813 92.9839C84.0978 92.9938 84.117 93.0052 84.1332 93.0151C84.1338 93.0154 84.2239 93.0672 84.3353 93.1306C84.3755 93.1534 84.4166 93.1773 84.4565 93.2001C84.4661 93.2055 84.4761 93.2109 84.4857 93.216C84.5559 93.2558 84.6238 93.2938 84.6742 93.3216C84.782 93.3812 84.8819 93.4354 84.981 93.4878C84.99 93.4929 84.999 93.4974 85.008 93.5025V93.5025C85.0095 93.5037 85.1827 93.5986 85.4613 93.7348C85.7786 93.8929 86.0899 94.0387 87.0565 94.4225C87.3609 94.5464 87.6764 94.6737 87.943 94.7707C87.952 94.7739 87.9631 94.7778 87.9724 94.7814C87.9739 94.782 87.9754 94.7826 87.9772 94.7832C88.2486 94.8883 88.5797 95.0009 88.9009 95.1036C89.0912 95.1658 89.278 95.2245 89.4455 95.2709C89.4578 95.2742 89.4719 95.279 89.4842 95.2826C90.3851 95.5437 91.5949 95.8475 92.5231 96.029C92.5264 96.0299 92.5303 96.0305 92.5339 96.0314C92.9004 96.1119 93.3654 96.1858 93.7812 96.2484C93.9031 96.2673 94.0199 96.2846 94.1336 96.3011C94.1369 96.3017 94.1414 96.3023 94.1453 96.3026C94.1501 96.3032 94.1546 96.3038 94.1594 96.3044C94.3236 96.3277 94.4794 96.3493 94.6238 96.3679C95.6616 96.5053 96.6634 96.5846 97.5895 96.6244C98.1073 96.6538 98.551 96.6672 98.9932 96.6604C99.004 96.6604 99.016 96.6601 99.0268 96.6598C100.459 96.6669 101.596 96.5921 102.218 96.5382C102.698 96.5095 103.337 96.4352 103.814 96.3706C104.289 96.3059 104.922 96.2248 105.393 96.1308C105.856 96.0595 106.455 95.9182 106.91 95.8272C107.096 95.7901 107.688 95.6472 108.363 95.4619C108.383 95.4568 108.405 95.4518 108.425 95.4464C108.729 95.3694 109.049 95.2709 109.372 95.1664C109.542 95.1128 109.709 95.0587 109.865 95.0045C110.3 94.8536 110.883 94.6578 111.305 94.4749C111.317 94.4701 112.556 93.9911 113.862 93.2704C113.865 93.2695 113.867 93.2684 113.869 93.2675C113.997 93.201 114.505 92.9283 115.225 92.4513C115.263 92.4265 115.306 92.4001 115.342 92.3759C115.461 92.2984 115.591 92.2052 115.724 92.1097C115.939 91.9589 116.162 91.7981 116.4 91.617V91.617C126.681 83.6657 136.962 75.7143 147.244 67.763V67.763C150.075 65.5563 151.321 63.5079 152.091 61.9694C152.839 60.4749 153.207 58.8992 153.246 58.7247C153.43 57.9095 153.505 57.4301 153.535 57.1715C153.564 56.923 153.61 56.5928 153.627 56.3431C153.658 55.903 153.683 55.3147 153.693 54.8737L153.7 53.7148V53.7148V53.7148Z" transform="translate(0 0.168701)" fill="#1D1D1F"/>
<path d="M0.1305 0C0.114 0.759833 0.1071 1.07419 0 1.92264C0.0477 1.56757 0.0735 1.20262 0.0747 0.832583C0.1107 0.561642 0.1296 0.283815 0.1305 0Z" transform="translate(93.4648 20.0317)" fill="#2E2E30"/>
<path d="M0.0594 0L0.0561 1.15981C0.0552 1.44362 0.0366 1.72175 0 1.99239L0.003 0.832583C0.0402 0.561941 0.0588 0.284114 0.0594 0Z" transform="translate(93.5389 18.8716)" fill="#2E2E30"/>
<path d="M0 2.94608C0.178616 2.86854 0.373142 2.89968 0.576975 3.05566C10.3985 -1.21025 24.009 -0.533941 32.4934 4.35139C33.3087 4.82052 34.0769 5.32947 34.7896 5.87554C38.5573 8.76339 40.0913 12.1722 39.6494 15.4597C41.1144 15.1483 42.2963 16.9734 42.2891 19.5358C42.3254 19.2645 42.3443 18.9867 42.3452 18.7032C42.3314 17.4641 42.2617 16.9297 42.0933 15.9198C42.0252 15.5121 41.809 14.5588 41.5179 13.7379C41.2099 12.8694 40.8775 12.112 40.5302 11.4866C40.3336 11.1327 39.7362 10.0567 38.9314 9.07954C38.2106 8.20474 37.8026 7.77543 36.9456 6.99045C36.5517 6.62969 36.0828 6.25845 35.5395 5.82884C35.3266 5.66029 35.0366 5.45012 34.7827 5.27917C33.9439 4.71574 32.877 4.1017 31.778 3.55024C30.522 2.92004 29.3284 2.47575 28.819 2.28624C26.1224 1.28301 23.2015 0.718377 22.3039 0.58575C21.789 0.509707 21.1049 0.388158 20.5871 0.33367C20.0653 0.279183 19.3704 0.195655 18.8477 0.151646C18.3221 0.107636 17.6187 0.0735067 17.0922 0.0399758C16.0337 -0.0273853 14.6168 0.00554677 13.5565 0.0294974C13.2083 0.0372813 10.055 0.129192 6.53644 0.886031C5.99759 1.00189 4.73527 1.27373 3.14154 1.7755C2.18212 2.07847 0.932706 2.57036 0 2.94608Z" transform="translate(51.2538 0.168213)" fill="#1D1D1F"/>
<path d="M0 17.9361C1.2359 17.3993 2.88337 16.6832 4.11927 16.1464C4.73708 15.8781 5.56111 15.5201 6.17891 15.2518C7.41481 14.715 9.06228 13.9989 10.2982 13.4621C10.916 13.1939 11.74 12.8358 12.3578 12.5676C13.5937 12.0308 15.2412 11.3146 16.4771 10.7778C17.0949 10.5096 17.9189 10.1515 18.5367 9.88329C19.7726 9.3465 21.4201 8.63038 22.656 8.09358C23.8919 7.55679 25.5394 6.84067 26.7753 6.30387C27.3931 6.03563 28.2171 5.67756 28.8346 5.40932C30.0705 4.87252 31.718 4.1564 32.9539 3.61961C33.5717 3.35136 34.3957 2.9933 35.0132 2.72505C36.2491 2.18826 37.8966 1.47214 39.1325 0.935343C39.7503 0.667096 41.1918 0.0407873 41.1918 0.0407873C41.3705 -0.0367528 41.5653 -0.00561701 41.7688 0.150361L0.576975 18.0457C0.373442 17.8894 0.178916 17.8586 0 17.9361Z" transform="translate(10.061 3.07397)" fill="#1D1D1F"/>
<path d="M1.08581 0.209896C12.1222 6.56429 23.1582 12.919 34.1949 19.2737C34.0748 19.2045 33.9406 19.2719 33.7992 19.4958L0 0.0344575C0.387251 -0.0475734 0.75469 0.019189 1.08581 0.209896Z" transform="translate(90.9032 15.5935)" fill="#3E3D43"/>
<path d="M7.81017 23.5039C7.7009 23.4429 7.59313 23.3788 7.48536 23.3156C7.37639 23.2516 7.26712 23.1872 7.15935 23.1216C6.90118 22.965 6.68174 22.8252 6.50612 22.7058C6.1564 22.4684 5.94506 22.3256 4.72867 21.2999C4.4723 21.084 4.1526 20.77 3.92175 20.5272C3.59483 20.1841 3.17216 19.7123 2.88487 19.3353C2.56036 18.909 2.1623 18.3141 1.88673 17.8549C1.29384 16.8678 0.770901 15.5206 0.560164 14.7C0.458097 14.3018 0.334417 13.7677 0.252164 13.365C0.206834 13.1432 0.164807 12.8432 0.135088 12.6187C0.105068 12.3932 0.0687446 12.0918 0.0543353 11.8645C0.0282183 11.455 0.00750487 10.9086 0 10.4982C0.0114074 6.51098 3.14064 2.57888 9.07309 0C9.06589 2.56272 9.75333 5.17184 10.6083 5.82719C1.67809 9.70838 -0.0951614 17.0483 6.65232 22.2199C7.2401 22.6708 7.87591 23.0917 8.55105 23.4803C14.7555 27.0528 24.3668 27.968 32.2968 25.5625C32.4403 25.7197 32.5781 25.773 32.7056 25.734C27.6011 27.2812 22.7929 27.2711 19.6583 26.9902C18.4077 26.8783 15.9277 26.5777 13.3671 25.8245C10.4054 24.953 8.65222 23.9743 7.81017 23.5039Z" transform="translate(0.000598907 25.7332)" fill="#1D1D1F"/>
<path d="M0.295692 0.0420138C1.40311 0.0021959 3.0764 -0.0582794 5.38069 0.128535C7.82338 0.326427 9.66177 0.6794 10.5404 0.871903C12.2224 1.24104 13.1257 1.48773 14.7426 2.01944C15.9382 2.41283 17.5428 3.09632 18.0976 3.35798C18.546 3.56994 18.8679 3.73759 19.2128 3.92471C19.2158 3.9265 19.8882 4.30283 19.9951 4.3642C19.7693 4.23427 19.5187 4.23457 19.2542 4.38755C18.4383 3.91752 17.5563 3.47593 16.6074 3.06578C11.5959 0.898548 5.6902 0.0234521 0 0.289603C0.103567 0.12644 0.202632 0.0462052 0.295692 0.0420138Z" transform="translate(124.702 34.7996)" fill="#3E3D43"/>
<path d="M19.7018 3.16388C13.1341 5.15597 6.56766 7.14806 0 9.14015C0.463501 8.99974 0.798218 7.65073 0.803922 5.64247L19.4037 0C19.3983 2.00856 19.5229 3.21806 19.7018 3.16388Z" transform="translate(32.7059 42.3267)" fill="#1D1D1F"/>
<path d="M18.6028 0L18.5998 1.15981L0 6.80227L0.00300195 5.64247L18.6028 0Z" transform="translate(33.5105 41.1672)" fill="#1D1D1F"/>
<path d="M20.2701 0C20.0104 1.00563 19.794 3.89856 19.7867 6.46128L1.18697 12.1037C1.19418 9.54103 0.66283 6.87502 0 6.14932L20.2701 0Z" transform="translate(32.3268 34.7061)" fill="#3E3D43"/>
<path d="M32.7063 15.2359C31.9525 15.447 30.945 15.7224 30.1795 15.8858C28.9412 16.1508 27.9425 16.2843 27.5663 16.3346C26.9912 16.4116 26.066 16.5169 24.9228 16.5813C24.1312 16.6256 23.0724 16.6723 22.2805 16.6319C21.8863 16.6118 21.3598 16.6065 20.9656 16.5855C20.5733 16.5645 20.0501 16.5346 19.6592 16.4918C18.8868 16.4083 17.8586 16.2777 17.0898 16.1655C16.7098 16.1101 16.2073 16.0107 15.8311 15.9328C15.4574 15.8556 14.9587 15.7523 14.5904 15.6532C13.8735 15.4613 12.9222 15.1868 12.2147 14.9643C11.7238 14.8102 10.4804 14.3344 9.92928 14.0776C9.30367 13.7863 8.47543 13.3836 7.87564 13.042C7.57875 12.8726 7.04801 12.5561 6.94294 12.4888C6.53587 12.228 6.33144 12.0969 5.96761 11.819C5.90366 11.7702 5.84092 11.7199 5.77878 11.6687C5.45307 11.402 5.12106 11.1427 4.80345 10.8661C4.54978 10.6455 4.22768 10.3332 3.98932 10.0964C3.98152 10.0889 3.1938 9.29494 2.64115 8.51115C2.33645 8.07884 1.91858 7.48666 1.51992 6.67833C1.27316 6.17836 0.993976 5.61163 0.626237 4.42727C0.487847 3.98149 0.29242 3.23333 0.146525 2.20076C0.0138392 1.26609 3.02383e-05 0.350278 3.02383e-05 0C-0.00777483 2.77618 1.4953 5.579 4.61613 7.97166C5.26995 8.57761 5.99342 8.95274 6.75412 9.39104C13.7442 13.4165 24.5782 14.4485 33.5099 11.7382C33.5045 13.7465 33.1698 15.0952 32.7063 15.2359Z" transform="translate(-3.05176e-05 36.2314)" fill="#1D1D1F"/>
<path d="M3.02324e-05 1.15981L0.00303218 0C-0.00477289 2.77618 1.4983 5.579 4.61913 7.97166C5.27295 8.57761 5.99642 8.95274 6.75712 9.39104C13.7472 13.4165 24.5812 14.4485 33.5129 11.7382L33.5093 12.898C24.577 15.6083 13.7436 14.5766 6.75352 10.5508C5.99252 10.1128 5.26935 9.73772 4.61553 9.13147C1.4956 6.73911 -0.00777484 3.93598 3.02324e-05 1.15981Z" transform="translate(-3.05176e-05 35.0715)" fill="#1D1D1F"/>
<path d="M3.50413e-05 14.1023C0.00663933 13.8337 0.00784011 13.4754 0.0273528 13.2074C0.0570721 12.8008 0.105704 12.2584 0.165142 11.8548C0.250097 11.277 0.422709 10.3995 0.652058 9.6699C1.14408 8.10503 1.72796 6.93085 2.66787 5.61656C3.40665 4.58339 4.52727 3.44274 5.59177 2.6395C6.20987 2.17306 7.06842 1.59436 7.73786 1.20486C8.4109 0.813266 9.35171 0.369281 10.0575 0.0408582C10.2361 -0.0366819 10.4309 -0.00584549 10.6347 0.150432C1.70424 4.03163 -0.0687094 11.3716 6.67877 16.5431C7.26655 16.994 7.90237 17.4149 8.57751 17.8035C14.7819 21.3761 24.3933 22.2913 32.3232 19.8857C32.9858 20.6114 33.5174 23.278 33.5102 25.8402C24.5779 28.5505 13.7445 27.5188 6.75442 23.493C5.99343 23.055 5.27026 22.6799 4.61643 22.0736C1.49531 19.6819 -0.00837042 16.8787 3.50413e-05 14.1023Z" transform="translate(0.00356674 20.969)" fill="#3E3D43"/>
<path d="M38.3762 25.1026C29.4685 19.9736 20.5608 14.8446 11.6528 9.71587C7.85717 7.53037 4.06151 5.34488 0.265844 3.15939C0.104039 3.06628 -0.00493139 1.88491 0.000171921 0L36.5282 21.0325C36.5234 22.9171 37.2823 24.4724 38.3762 25.1026Z" transform="translate(52.1095 42.3271)" fill="#1D1D1F"/>
<path d="M36.5316 21.0325L36.528 22.1926L0 1.15981L0.00300195 0L36.5316 21.0325Z" transform="translate(52.1102 41.1672)" fill="#1D1D1F"/>
<path d="M6.44999 0C6.43918 0.440991 6.41457 1.02928 6.38395 1.46937C6.36683 1.71876 6.32 2.04957 6.29088 2.29776C6.26087 2.55673 6.18642 3.03634 6.0024 3.85096C5.96277 4.0255 5.59533 5.60145 4.84755 7.09567C4.07785 8.6339 2.83114 10.6826 0 12.8893C0.649322 12.3873 1.09421 11.0382 1.09931 9.26739C4.69865 6.48553 6.44038 3.23124 6.44999 0Z" transform="translate(147.247 55.0432)" fill="#1D1D1F"/>
<path d="M5.35398 0L5.35037 1.15981C5.34137 4.39105 3.59904 7.64534 0 10.4275L0.00330214 9.26769C3.60264 6.48553 5.34497 3.23124 5.35398 0Z" transform="translate(148.346 53.8835)" fill="#1D1D1F"/>
<path d="M39.6918 22.5759C37.9521 22.7288 36.5352 24.9311 36.528 27.4938L0 6.46128C0.00720468 3.89856 0.223945 1.00563 0.483314 0L39.6918 22.5759Z" transform="translate(52.1138 34.7058)" fill="#1D1D1F"/>
<path d="M0.740581 0.094645C1.44514 0.528151 2.38355 1.11285 3.04548 1.60922C3.66538 2.07386 4.44469 2.75526 5.00455 3.28996C5.32306 3.59443 5.71541 4.03332 6.0051 4.36534C6.21223 4.60275 6.4665 4.93746 6.65982 5.18625C6.99394 5.61586 7.37249 6.23738 7.65647 6.70142C8.18361 7.56335 8.85515 9.15067 9.13883 10.2521C9.32165 10.9628 9.46605 11.5236 9.60564 12.5771C9.72151 13.4519 9.73172 14.0833 9.74343 14.8141C9.73442 18.0453 7.99209 21.2996 4.39305 24.0818C4.40026 21.5191 3.48406 19.0423 2.34662 18.551C9.7011 12.8654 8.48591 5.00452 0 0.118596C0.264172 -0.0352871 0.514834 -0.0352871 0.740581 0.094645Z" transform="translate(143.957 39.0693)" fill="#3E3D43"/>
<path d="M30.8441 3.62163C20.5625 11.5729 10.2814 19.5242 0 27.4758C0.649322 26.9735 1.09421 25.6248 1.09931 23.8539L31.9434 0C31.9383 1.77055 31.4935 3.11957 30.8441 3.62163Z" transform="translate(116.403 64.311)" fill="#1D1D1F"/>
<path d="M30.8474 0L30.8441 1.16011L0 25.014L0.00330214 23.8542L30.8474 0Z" transform="translate(117.502 63.1509)" fill="#1D1D1F"/>
<path d="M30.8447 0C31.9819 0.491886 32.8984 2.96868 32.8912 5.5308L2.04673 29.3847C2.05393 26.822 1.13774 24.3455 0 23.8539L30.8447 0Z" transform="translate(115.459 57.6201)" fill="#3E3D43"/>
<path d="M10.1619 20.2491C9.32886 19.917 8.66423 19.5527 8.66122 19.5509V19.5509C8.47751 19.45 8.29228 19.3512 8.11007 19.2482C7.27793 18.7779 6.35663 18.2201 5.26212 17.3304C3.73473 16.0888 2.82664 14.8308 2.78851 14.7778C2.64712 14.5802 2.45259 14.321 2.32081 14.1174C2.13559 13.8309 1.89243 13.4459 1.73242 13.1444C1.52799 12.7585 1.27943 12.2313 1.10382 11.8316C0.997848 11.5903 0.874168 11.2604 0.793715 11.0089C0.717766 10.7712 0.609996 10.4562 0.548456 10.2146C0.390554 9.59522 0.303497 9.25392 0.23145 8.80365C0.0264172 7.52379 0.0171111 7.00196 0 6.05472C0.0060039 3.99975 0.842947 1.92473 2.57897 0C2.57177 2.56272 3.58613 4.9491 4.84455 5.32931C0.706059 9.91765 2.32261 15.4676 8.52644 19.0395C9.20188 19.4287 9.93165 19.794 10.7146 20.1323C19.6913 24.0147 32.3922 22.9665 39.0785 17.7935C39.43 17.9453 39.7614 17.8899 40.0523 17.6651C38.726 18.6746 37.7114 19.2171 37.5214 19.3159C36.7667 19.7072 35.7379 20.185 34.9577 20.5233C34.5356 20.7065 33.9523 20.902 33.5174 21.0529C32.437 21.428 30.8853 21.8106 30.5625 21.8756C30.1014 21.9678 29.4903 22.1124 29.0249 22.1828C28.0817 22.3259 26.8209 22.5046 25.8699 22.5869C24.6367 22.6935 21.3811 22.8836 17.7974 22.3507C17.3122 22.2783 16.6647 22.1846 16.1859 22.0795C15.2577 21.8759 14.0263 21.5747 13.1101 21.3229C12.6481 21.1957 12.045 20.9828 11.595 20.8194C11.1609 20.6604 10.5918 20.4203 10.1619 20.2491Z" transform="translate(76.3501 74.1216)" fill="#2E2E30"/>
<path d="M40.0526 11.611C39.7353 11.8385 39.3217 12.1555 38.9951 12.3702C38.594 12.6337 38.047 12.9678 37.6286 13.2025C36.2816 13.9581 34.9709 14.4644 34.9583 14.4692C34.0917 14.7967 33.0131 15.2039 32.078 15.4407C31.1765 15.6688 29.9661 15.9409 29.0544 16.1239C28.5819 16.2185 27.9443 16.3002 27.4667 16.3652C26.9897 16.4298 26.3514 16.5041 25.8708 16.5328C24.9042 16.5909 23.6143 16.64 22.6461 16.655C21.7651 16.6684 20.8786 16.6011 19.4097 16.4897C19.3962 16.4888 17.9475 16.3661 16.2136 16.0304C15.2803 15.8499 14.0495 15.541 13.1369 15.2763C12.6797 15.1437 12.0736 14.9494 11.6299 14.7772C9.75516 14.0506 9.45767 13.9012 9.00768 13.6755C8.79034 13.5665 8.5742 13.4519 8.32714 13.3156C8.15543 13.2207 7.78709 13.0097 7.78558 13.0088C7.51361 12.8441 7.14347 12.6363 6.8817 12.4561C6.37797 12.1094 5.70764 11.6418 5.23513 11.2541C4.19675 10.4024 3.58045 9.68563 3.21242 9.25781C2.46283 8.38601 1.45117 6.84778 0.860088 5.14459C0.625335 4.46799 0.00153029 2.67049 2.93198e-05 0C-0.00957692 3.46326 2.34155 6.86784 6.7295 9.39403C7.49079 9.83233 8.14132 10.2488 9.1932 10.6242C19.3107 14.9988 33.6147 13.8183 41.1516 7.98903C41.1468 9.75988 40.7026 11.1086 40.0526 11.611Z" transform="translate(76.3501 80.1755)" fill="#1D1D1F"/>
<path d="M3.11692e-05 1.15981L0.00303312 0C-0.00657312 3.46326 2.34455 6.86784 6.7325 9.39403C7.4938 9.83233 8.14432 10.2488 9.1962 10.6242C19.3137 14.9988 33.6177 13.8183 41.1547 7.98903L41.1514 9.14884C33.6144 14.9781 19.3104 16.1586 9.1929 11.784C8.14102 11.408 7.49019 10.9921 6.7292 10.5538C2.34185 8.02795 -0.00987526 4.62307 3.11692e-05 1.15981Z" transform="translate(76.3503 79.0156)" fill="#1D1D1F"/>
<path d="M31.9936 0.0910123L31.9639 10.5317C31.9573 12.8791 30.4101 15.223 27.3196 17.0142C21.0983 20.62 10.98 20.62 4.71818 17.0142C1.56704 15.1997 -0.00658359 12.8184 2.07012e-05 10.4407L0.02974 0C0.0228355 2.378 1.59676 4.75929 4.7479 6.57355C11.0097 10.1793 21.1283 10.179 27.3493 6.57355C30.4398 4.78234 31.987 2.43817 31.9936 0.0910123Z" transform="translate(39.6635 33.8027)" fill="#2E2E30"/>
<path d="M27.2456 2.70432C33.5073 6.31009 33.5403 12.1549 27.3194 15.7607C21.0982 19.3665 10.9798 19.3665 4.71802 15.7607C-1.54374 12.1549 -1.57676 6.31009 4.64418 2.70432C10.8651 -0.901441 20.9838 -0.901441 27.2456 2.70432Z" transform="translate(39.6934 24.6155)" fill="#3E3D43"/>
<path d="M31.9936 0.0910123L31.9639 10.5317C31.9573 12.8791 30.4101 15.223 27.3196 17.0142C21.0983 20.62 10.98 20.62 4.71818 17.0142C1.56704 15.1997 -0.00658359 12.8184 2.07012e-05 10.4407L0.02974 0C0.0228355 2.378 1.59676 4.75929 4.7479 6.57355C11.0097 10.1793 21.1283 10.179 27.3493 6.57355C30.4398 4.78234 31.987 2.43847 31.9936 0.0910123Z" transform="translate(72.2605 52.5713)" fill="#2E2E30"/>
<path d="M27.2456 2.70421C33.5073 6.30998 33.5403 12.1548 27.3194 15.7606C21.0982 19.3664 10.9798 19.3664 4.71802 15.7606C-1.54374 12.1548 -1.57676 6.30998 4.64418 2.70421C10.8651 -0.901554 20.9835 -0.901254 27.2456 2.70421Z" transform="translate(72.2904 43.3845)" fill="#3E3D43"/>
<path d="M31.9936 0.0910123L31.9639 10.5317C31.9573 12.8791 30.4101 15.223 27.3196 17.0142C21.0983 20.62 10.98 20.62 4.71818 17.0142C1.56704 15.1997 -0.00658359 12.8184 2.07012e-05 10.4407L0.02974 0C0.0228355 2.378 1.59676 4.75929 4.7479 6.57355C11.0097 10.1793 21.1283 10.179 27.3493 6.57355C30.4398 4.78234 31.987 2.43847 31.9936 0.0910123Z" transform="translate(72.2605 52.5713)" fill="#1D1D1F"/>
<path d="M0 12.1627C0.317306 11.8112 0.740281 11.3421 1.05759 10.9903C1.21579 10.8146 1.42713 10.5808 1.58563 10.4053C1.90113 10.0557 2.32201 9.58923 2.63751 9.23925C3.50117 8.28182 4.36453 7.3247 5.2285 6.36727C5.53229 6.03047 5.93756 5.58139 6.24135 5.24459C6.39145 5.07843 6.59138 4.85659 6.74148 4.69043C7.03687 4.3629 7.43073 3.9264 7.72642 3.59888C8.0152 3.27884 8.40005 2.85192 8.68884 2.53188C8.83053 2.375 9.01906 2.16573 9.16075 2.00886C9.43783 1.70169 9.80707 1.29244 10.0841 0.985568C10.5951 0.419136 11.2147 0.0589784 11.882 0L1.30134 11.728C0.818632 11.5822 0.37014 11.7526 0 12.1627Z" transform="translate(79.9236 57.2817)" fill="#3E3D43"/>
<path d="M2.93161e-05 10.0574C0.0204426 9.19006 0.0225439 9.09904 0.0921892 8.38472C0.130614 7.99103 0.222174 7.4707 0.290318 7.0812C0.292119 7.07102 0.490548 5.99175 0.905117 4.88044C1.24194 3.9769 1.56555 3.31467 2.09809 2.43568C2.22868 2.22043 2.4121 1.93811 2.56369 1.73722C2.85368 1.35281 3.25654 0.851947 3.56965 0.486102C3.93979 0.0759473 4.38828 -0.0947008 4.87069 0.0516973C0.732205 4.64004 2.34875 10.19 8.55258 13.7619C9.22802 14.1511 9.9578 14.5164 10.7407 14.8547C19.7174 18.7371 32.4184 17.6889 39.1046 12.5159C40.2418 13.0078 41.1586 15.4843 41.1514 18.0467C33.6144 23.876 19.3104 25.0564 9.1929 20.6819C8.14102 20.3058 7.49019 19.89 6.7292 19.4517C2.34185 16.9252 -0.00957692 13.5206 2.93161e-05 10.0574Z" transform="translate(76.3537 68.9585)" fill="#3E3D43"/>
<path d="M141.371 38.7872C149.857 43.6731 151.072 51.534 143.717 57.2196C133.436 65.1709 123.154 73.1225 112.873 81.0738C106.187 86.2469 93.4858 87.295 84.5091 83.4126C83.7262 83.0743 82.9964 82.7088 82.321 82.3199C76.1172 78.7476 74.5006 73.198 78.6391 68.6096C82.1661 64.7003 85.6931 60.791 89.2198 56.8816C76.1502 49.3563 63.0806 41.831 50.011 34.3058C43.2545 36.3553 36.4974 38.4052 29.7409 40.4545C21.811 42.8603 12.2 41.9445 5.99522 38.3723C5.32008 37.9834 4.68427 37.5627 4.09649 37.1119C-2.65099 31.9403 -0.878041 24.6004 8.05246 20.7192C21.7831 14.754 35.514 8.78877 49.2449 2.82357C59.0664 -1.44233 72.6769 -0.766025 81.1613 4.1193C81.9767 4.58843 82.7449 5.09739 83.4575 5.64346C87.2253 8.53131 88.7593 11.9401 88.3174 15.2276C99.5837 21.7149 110.85 28.2019 122.117 34.689C127.806 34.4228 133.712 35.2979 138.724 37.4651C139.673 37.8756 140.555 38.3175 141.371 38.7872Z" transform="translate(2.58555 0.400146)" fill="#2E2E30"/>
<path d="M22.573 2.24066C17.3847 -0.746885 9.00265 -0.746885 3.8477 2.24066C-1.30544 5.2273 -1.27993 10.0704 3.90894 13.0577C9.09571 16.044 17.4808 16.044 22.6342 13.0577C27.7889 10.0698 27.76 5.227 22.573 2.24066" transform="translate(53.0284 6.35913)" fill="#3E3D43"/>
<path d="M17.6814 1.75498C13.617 -0.584994 7.05148 -0.584994 3.01386 1.75498C-1.02256 4.09436 -1.00245 7.88784 3.06159 10.2278C7.12473 12.5672 13.6927 12.5672 17.7291 10.2278C21.767 7.88784 21.7442 4.09436 17.6814 1.75498" transform="translate(55.8979 7.66333)" fill="#2E2E30"/>
<path d="M31.9936 0.0910123L31.9639 10.5317C31.9573 12.8791 30.4101 15.223 27.3196 17.0142C21.0983 20.62 10.98 20.62 4.71818 17.0142C1.56704 15.1997 -0.00658359 12.8184 2.07012e-05 10.4407L0.02974 0C0.0228355 2.378 1.59676 4.75929 4.7479 6.57355C11.0097 10.1793 21.1283 10.179 27.3493 6.57355C30.4398 4.78234 31.987 2.43817 31.9936 0.0910123Z" transform="translate(39.6635 33.8027)" fill="#1D1D1F"/>
<path d="M27.2456 2.70432C33.5073 6.31009 33.5403 12.1549 27.3194 15.7607C21.0982 19.3665 10.9798 19.3665 4.71802 15.7607C-1.54374 12.1549 -1.57676 6.31009 4.64418 2.70432C10.8651 -0.901441 20.9838 -0.901441 27.2456 2.70432Z" transform="translate(39.6934 24.6155)" fill="#3E3D43"/>
<path d="M27.2456 2.70421C33.5073 6.30998 33.5403 12.1548 27.3194 15.7606C21.0982 19.3664 10.9798 19.3664 4.71802 15.7606C-1.54374 12.1548 -1.57676 6.30998 4.64418 2.70421C10.8651 -0.901554 20.9835 -0.901254 27.2456 2.70421Z" transform="translate(72.2904 43.3845)" fill="#3E3D43"/>
<path d="M17.9079 1.77744C22.0236 4.14735 22.0455 7.98903 17.9562 10.3586C13.867 12.7283 7.21674 12.7286 3.10107 10.3586C-1.0146 7.98903 -1.03652 4.14705 3.05274 1.77744C7.14199 -0.592478 13.7925 -0.592478 17.9079 1.77744Z" transform="translate(77.7672 46.0686)" fill="#2E2E30"/>
<path fill-rule="evenodd" clip-rule="evenodd" d="M20.3643 10.4897L20.3685 8.99487L16.236 6.61597L20.3289 4.24414L20.3334 2.74927L15.5588 0L10.17 3.1228L4.74728 0.000488281L0.00450134 2.74927L0 4.24414L4.13129 6.62256L0.0384216 8.99463L0.0339203 10.4895L4.80853 13.2388L10.1973 10.1155L15.6215 13.2385L20.3643 10.4897ZM94.7244 27.3721L94.7298 25.4985C94.7296 25.5376 94.7252 25.5771 94.7208 25.6165L94.7151 25.6714C94.7991 24.7112 94.2108 23.7339 92.9367 23.0007C92.5396 22.7725 92.0992 22.5852 91.6345 22.4329C92.4318 22.2627 93.1808 21.9961 93.8196 21.6257C94.994 20.9453 95.5818 20.0542 95.5845 19.1624L95.5898 17.2917C95.5896 17.3301 95.5853 17.3682 95.581 17.4062L95.5751 17.4614C95.6592 16.5012 95.0708 15.5244 93.7968 14.7908C91.4174 13.4209 87.5732 13.4214 85.2091 14.7917C84.0312 15.4746 83.4437 16.3687 83.4452 17.2629L83.4446 17.2544L83.4392 19.1279C83.4368 20.0312 84.0348 20.936 85.2319 21.6252C85.6297 21.8538 86.0707 22.0415 86.5366 22.1936C85.7387 22.364 84.9888 22.6309 84.3494 23.0015C83.1711 23.6846 82.5833 24.5786 82.5845 25.4734L82.5839 25.4653L82.5785 27.3389C82.5761 28.2422 83.1738 29.1465 84.3707 29.8357C86.75 31.2056 90.5955 31.2056 92.9595 29.8357C94.1339 29.1548 94.722 28.2639 94.7244 27.3721ZM70.1615 30.3591C72.5409 31.729 76.3867 31.729 78.7504 30.3591C79.9245 29.6787 80.512 28.7886 80.5144 27.897L80.5198 26.0234C80.5196 26.061 80.5154 26.0986 80.5113 26.1362L80.5057 26.1909C80.5873 25.2322 79.998 24.2571 78.7264 23.5249C78.3289 23.2961 77.8886 23.1089 77.4236 22.9565C78.2215 22.7866 78.9711 22.5195 79.6108 22.1489C80.7854 21.468 81.3732 20.5774 81.3759 19.6853L81.3813 17.8147C81.3811 17.8523 81.3768 17.8901 81.3726 17.928L81.3669 17.9814C81.4495 17.0225 80.8611 16.0471 79.5901 15.3149C77.2107 13.9448 73.3649 13.9448 71.0009 15.3149C69.8229 15.9978 69.2354 16.8921 69.237 17.7869L69.2363 17.7781L69.2309 19.6516C69.2285 20.5554 69.8265 21.4604 71.0237 22.1497C71.4206 22.3782 71.8609 22.5652 72.3257 22.7173C71.5286 22.8875 70.7796 23.1541 70.1405 23.5244C68.9623 24.2078 68.3748 25.1016 68.3757 25.9966L68.3751 25.9885L68.3697 27.8621C68.3667 28.7651 68.9644 29.6697 70.1615 30.3591Z" transform="translate(45.496 25.3945)" fill="#E0E0E2"/>
<path d="M12.1507 0.0347284L12.1453 1.90827C12.1429 2.80043 11.5548 3.69109 10.3804 4.37159C8.01641 5.74156 4.17212 5.74096 1.79277 4.37069C0.595596 3.68151 -0.00269265 2.77677 9.10934e-06 1.87354L0.00541262 0C0.00301106 0.903238 0.600999 1.80797 1.79818 2.49715C4.17752 3.86713 8.02182 3.86802 10.3859 2.49805C11.5602 1.81785 12.1483 0.926889 12.1507 0.0347284Z" transform="translate(128.935 42.6479)" fill="#C6C5CB"/>
<path d="M10.3525 1.02707C12.7319 2.39705 12.7445 4.61876 10.3804 5.98844C8.0164 7.35812 4.1721 7.35782 1.79276 5.98754C-0.586586 4.61757 -0.599194 2.39764 1.76484 1.02767C4.12858 -0.342007 7.97287 -0.342905 10.3525 1.02707Z" transform="translate(128.941 39.1575)" fill="#E0E0E2"/>
<path d="M12.151 0.0335309L12.1456 1.90707C12.1432 2.79923 11.5551 3.69019 10.3804 4.37069C8.01641 5.74066 4.17092 5.74066 1.79277 4.37159C0.595296 3.68241 -0.00269264 2.77737 9.11388e-06 1.87354L0.00541262 0C0.00301106 0.903836 0.600999 1.80887 1.79818 2.49805C4.17602 3.86743 8.02182 3.86743 10.3859 2.49715C11.5605 1.81665 12.1486 0.925691 12.151 0.0335309Z" transform="translate(114.726 43.1724)" fill="#C6C5CB"/>
<path d="M10.354 1.02722C12.7322 2.3966 12.7445 4.61772 10.3804 5.98799C8.0164 7.35797 4.1709 7.35797 1.79276 5.98889C-0.586586 4.61891 -0.599194 2.39719 1.76484 1.02752C4.12888 -0.342456 7.97467 -0.342456 10.354 1.02722Z" transform="translate(114.731 39.6819)" fill="#E0E0E2"/>
<path d="M12.1513 0.0335309L12.1459 1.90707C12.1435 2.79923 11.5554 3.68989 10.381 4.37039C8.01701 5.74036 4.17152 5.74036 1.79217 4.37039C0.595294 3.68121 -0.00239435 2.77677 7.20829e-06 1.87354L0.00541072 0C0.00300916 0.903238 0.600697 1.80767 1.79757 2.49685C4.17692 3.86683 8.02242 3.86683 10.3865 2.49685C11.5608 1.81635 12.1489 0.925392 12.1513 0.0335309Z" transform="translate(128.075 50.8594)" fill="#C6C5CB"/>
<path d="M10.353 1.02741C12.7323 2.39738 12.745 4.6191 10.3809 5.98878C8.01688 7.35875 4.17139 7.35875 1.79204 5.98878C-0.587303 4.6188 -0.59841 2.39828 1.76532 1.02801C4.12906 -0.342269 7.97336 -0.342868 10.353 1.02741Z" transform="translate(128.08 47.3674)" fill="#E0E0E2"/>
<path d="M12.1504 0.0347284L12.145 1.90827C12.1426 2.79983 11.5548 3.69019 10.381 4.37039C8.01701 5.74036 4.17152 5.74036 1.79217 4.37039C0.595294 3.68121 -0.00239435 2.77677 7.20829e-06 1.87354L0.00541072 0C0.00300916 0.903238 0.600697 1.80767 1.79757 2.49685C4.17692 3.86683 8.02272 3.86683 10.3865 2.49685C11.5602 1.81665 12.1477 0.92659 12.1504 0.0347284Z" transform="translate(113.865 51.3828)" fill="#C6C5CB"/>
<path d="M10.3515 1.02748C12.7308 2.39746 12.745 4.61798 10.3809 5.98825C8.01688 7.35823 4.17139 7.35823 1.79204 5.98825C-0.587303 4.61828 -0.59841 2.39776 1.76532 1.02748C4.12936 -0.342494 7.97215 -0.342494 10.3515 1.02748Z" transform="translate(113.871 47.8916)" fill="#E0E0E2"/>
<path d="M5.393 0L5.3888 1.49482L0 4.61798L0.00420273 3.12316L5.393 0Z" transform="translate(60.4364 28.1494)" fill="#50860E"/>
<path d="M5.42722 3.12256L5.42302 4.61738L0 1.49482L0.00450292 0L5.42722 3.12256Z" transform="translate(45.4957 28.1497)" fill="#8CDC2B"/>
<path d="M5.42842 3.12286L5.42422 4.61798L0 1.49482L0.00450292 0L5.42842 3.12286Z" transform="translate(55.6937 34.0215)" fill="#8CDC2B"/>
<path d="M4.74698 0L4.74248 1.49512L0 4.24345L0.00420273 2.74833L4.74698 0Z" transform="translate(61.1179 34.3958)" fill="#50860E"/>
<path d="M4.7791 2.74953L4.7746 4.24405L0 1.49512L0.00420273 0L4.7791 2.74953Z" transform="translate(45.53 34.3953)" fill="#8CDC2B"/>
<path d="M5.3936 0L5.3891 1.49482L0 4.61798L0.00450292 3.12346L5.3936 0Z" transform="translate(50.3046 34.0212)" fill="#50860E"/>
<path d="M20.3292 2.74953L14.9404 5.87269L20.3646 8.99585L15.6218 11.7442L10.1979 8.62132L4.80882 11.7448L2.42197 10.3703L0.033922 8.99525L5.42272 5.87209L0 2.74953L4.74248 0.000898148L10.1655 3.12346L15.5543 0L20.3292 2.74953Z" transform="translate(45.5002 25.3999)" fill="#76BC21"/>
<path d="M16.6992 1.65731C20.5372 3.86705 20.5573 7.44947 16.7446 9.65981C12.9315 11.8696 6.72975 11.8696 2.89176 9.65981C-0.946237 7.45006 -0.96635 3.86765 2.84643 1.65731C6.6595 -0.552436 12.8609 -0.552436 16.6992 1.65731Z" transform="translate(56.4193 7.55469)" fill="#E0E0E2"/>
<path d="M17.8202 5.28425C17.8763 3.92146 17.0028 2.547 15.1968 1.50664C11.7079 -0.502214 6.07025 -0.502214 2.6039 1.50664C0.876582 2.50778 0.0150227 3.81878 0.0168239 5.13097C0.0168239 5.12678 0.0165237 5.12289 0.0165237 5.1184L1.29686e-05 6.17791C-0.00388957 7.50268 0.87298 8.82984 2.62882 9.84056C6.11769 11.8494 11.7553 11.8494 15.2217 9.84056C16.9436 8.84242 17.8058 7.53651 17.8094 6.22851L17.8259 5.16899C17.825 5.20731 17.822 5.24593 17.8202 5.28425Z" transform="translate(57.2919 2.48438)" fill="#E0E0E2"/>
<path d="M17.8259 0.0505957L17.8094 1.11011C17.8055 2.41811 16.9436 3.72402 15.2217 4.72216C11.7553 6.73102 6.11769 6.73102 2.62882 4.72216C0.87328 3.71145 -0.00388957 2.38428 1.29642e-05 1.05952L0.0165237 0C0.0126212 1.32477 0.88949 2.65193 2.64533 3.66265C6.1342 5.67151 11.7719 5.67151 15.2382 3.66265C16.9601 2.66451 17.8223 1.3586 17.8259 0.0505957Z" transform="translate(57.2913 7.60303)" fill="#C6C5CB"/>
<path d="M15.1805 1.50664C18.6693 3.5155 18.6876 6.77219 15.2216 8.78134C11.7552 10.7902 6.11757 10.7902 2.6287 8.78134C-0.860161 6.77249 -0.878473 3.5158 2.58758 1.50664C6.05393 -0.502214 11.6916 -0.502214 15.1805 1.50664Z" transform="translate(57.3079 2.48438)" fill="#E0E0E2"/>
<path d="M16.6992 1.65731C20.5372 3.86705 20.5573 7.44947 16.7446 9.65981C12.9315 11.8696 6.72975 11.8696 2.89176 9.65981C-0.946237 7.45006 -0.96635 3.86735 2.84643 1.65731C6.6595 -0.552436 12.8609 -0.552436 16.6992 1.65731Z" transform="translate(78.462 45.8279)" fill="#FEC92B"/>
<path d="M17.8202 5.28425C17.8763 3.92146 17.0028 2.547 15.1968 1.50664C11.7079 -0.502214 6.07025 -0.502214 2.6039 1.50664C0.876582 2.50778 0.0150227 3.81878 0.0168239 5.13097C0.0168239 5.12678 0.0165237 5.12289 0.0165237 5.1184L1.29686e-05 6.17791C-0.00388957 7.50268 0.87298 8.82984 2.62882 9.84056C6.11769 11.8494 11.7553 11.8494 15.2217 9.84056C16.9436 8.84272 17.8058 7.53651 17.8094 6.22851L17.8259 5.16899C17.8253 5.20761 17.822 5.24563 17.8202 5.28425Z" transform="translate(79.3343 40.7578)" fill="#E0E0E2"/>
<path d="M17.8259 0.0505957L17.8094 1.11011C17.8055 2.41811 16.9436 3.72402 15.2217 4.72216C11.7553 6.73102 6.11769 6.73102 2.62882 4.72216C0.87328 3.71145 -0.00388957 2.38428 1.29642e-05 1.05952L0.0165237 0C0.0126212 1.32477 0.88949 2.65193 2.64533 3.66265C6.1342 5.67151 11.7719 5.67151 15.2382 3.66265C16.9601 2.66421 17.8223 1.3586 17.8259 0.0505957Z" transform="translate(79.3337 45.8765)" fill="#DF9203"/>
<path d="M15.1805 1.50664C18.6693 3.5155 18.6876 6.77219 15.2216 8.78134C11.7552 10.7902 6.11757 10.7902 2.6287 8.78134C-0.860161 6.77249 -0.878473 3.5158 2.58758 1.50664C6.05393 -0.502214 11.6919 -0.502214 15.1805 1.50664Z" transform="translate(79.3503 40.7578)" fill="#FEC92B"/>
<path d="M7.67959 2.99128L3.00195 0.297736C2.313 -0.0992454 1.19958 -0.0992454 0.514836 0.297736C0.174115 0.495029 0.00480463 0.753696 0.00540502 1.01266C0.00540502 1.01176 0.00510482 1.01087 0.00510482 1.00997L1.5111e-06 2.79698C-0.000598879 3.05864 0.177717 3.3209 0.524442 3.52089L5.20208 6.21444C5.89103 6.61142 6.99935 6.61112 7.68289 6.21533C8.02301 6.01804 8.19322 5.76027 8.19382 5.50191L8.19893 3.71489C8.19893 3.75112 8.18752 3.78734 8.18061 3.82327C8.23645 3.52688 8.07434 3.21881 7.67959 2.99128Z" transform="translate(85.9914 23.3008)" fill="#E0E0E2"/>
<path d="M1.51363e-06 1.78702L0.00510483 0C0.00450444 0.26166 0.177417 0.52392 0.524742 0.723907V2.51092C0.177417 2.31064 -0.000598876 2.04868 1.51363e-06 1.78702Z" transform="translate(85.9911 24.3113)" fill="#D8D8DA"/>
<path d="M4.67764 2.69355V4.48026L0 1.78702V0L4.67764 2.69355Z" transform="translate(86.5159 25.0349)" fill="#C6C5CB"/>
<path d="M2.99685 0L2.99174 1.78702C2.99114 2.04538 2.82063 2.30315 2.48081 2.50044C1.79757 2.89653 0.688947 2.89653 0 2.49955V0.712531C0.688947 1.10921 1.80267 1.10921 2.48561 0.713429C2.82634 0.516435 2.99625 0.258367 2.99685 0Z" transform="translate(91.1932 27.0156)" fill="#ACABB1"/>
<path d="M7.6745 2.99128C8.36344 3.38796 8.36735 4.03134 7.6826 4.42802C6.99936 4.8241 5.88593 4.8241 5.19699 4.42712L0.519349 1.73358C-0.169598 1.33659 -0.173501 0.69352 0.510043 0.297736C1.19479 -0.0992454 2.30791 -0.0992454 2.99746 0.297736L7.6745 2.99128Z" transform="translate(85.9965 23.301)" fill="#E0E0E2"/>
<path d="M7.67959 2.99128L3.00195 0.297736C2.313 -0.0992454 1.19958 -0.0992454 0.514836 0.297736C0.174415 0.495029 0.00480463 0.753696 0.00540502 1.01266C0.00540502 1.01176 0.00510482 1.01087 0.00510482 1.00997L1.5111e-06 2.79698C-0.000598879 3.05864 0.177717 3.3209 0.524442 3.52089L5.20208 6.21444C5.89103 6.61142 6.99935 6.61112 7.68289 6.21533C8.02301 6.01804 8.19322 5.76027 8.19382 5.50191L8.19893 3.71489C8.19893 3.75112 8.18752 3.78734 8.18061 3.82327C8.23675 3.52688 8.07464 3.21881 7.67959 2.99128Z" transform="translate(96.6721 29.5149)" fill="#E0E0E2"/>
<path d="M1.5111e-06 1.78702L0.00510482 0C0.00450444 0.26166 0.177417 0.52392 0.524742 0.723907V2.51092C0.177717 2.31064 -0.000598879 2.04868 1.5111e-06 1.78702Z" transform="translate(96.6718 30.5254)" fill="#D8D8DA"/>
<path d="M4.67794 2.69355V4.48026L0 1.78672V0L4.67794 2.69355Z" transform="translate(97.1962 31.249)" fill="#C6C5CB"/>
<path d="M2.99685 0L2.99174 1.78702C2.99114 2.04538 2.82063 2.30315 2.48081 2.50044C1.79757 2.89653 0.688947 2.89653 0 2.49955V0.712531C0.688947 1.10921 1.80267 1.10921 2.48561 0.713429C2.82573 0.516435 2.99595 0.258367 2.99685 0Z" transform="translate(101.874 33.2297)" fill="#ACABB1"/>
<path d="M7.6745 2.99128C8.36344 3.38826 8.36735 4.03134 7.6826 4.42802C6.99966 4.8241 5.88593 4.8241 5.19699 4.42712L0.519349 1.73358C-0.169598 1.33659 -0.173501 0.69352 0.510043 0.297736C1.19479 -0.0992454 2.30791 -0.0992454 2.99746 0.297736L7.6745 2.99128Z" transform="translate(96.6775 29.5149)" fill="#E0E0E2"/>
</svg>
