<svg width="99" height="102" viewBox="0 0 99 102" fill="none" xmlns="http://www.w3.org/2000/svg">
<path d="M47.7454 102C31.1371 102 15.5065 93.8946 5.93304 80.3178L5.96139 80.2411L5.7085 79.869C-1.54884 69.1943 -1.90652 54.6324 4.75083 40.9161L5.03825 40.3243L4.54545 39.8878C1.35589 37.0635 -0.190187 34.6591 0.0734803 32.9358L0.156513 32.395C3.86442 22.954 10.2517 14.8936 18.6284 9.08537C27.2003 3.14188 37.2689 0 47.7454 0C75.9203 0 98.8423 22.8787 98.8423 51C98.8423 79.1213 75.9203 102 47.7454 102Z" transform="translate(0.0787964)" fill="#FECA2E"/>
<path d="M14.3552 28.656C22.2834 28.656 28.7104 22.2412 28.7104 14.328C28.7104 6.41487 22.2834 0 14.3552 0C6.42704 0 0 6.41487 0 14.328C0 22.2412 6.42704 28.656 14.3552 28.656Z" transform="translate(23.2778 4.83545)" fill="#FEDA44"/>
<path d="M83.4354 31.4074C65.9152 29.7189 35.7461 19.0306 16.0509 7.53425C11.3556 4.7936 7.68144 2.25496 5.04277 0C-4.39117 18.8359 -0.498232 39.2375 15.9633 49.1815C35.6575 61.0781 65.8785 53.5008 83.4635 32.2571C83.6803 31.9953 83.8919 31.7318 84.1029 31.4682C83.8835 31.4493 83.6609 31.4291 83.4354 31.4074Z" transform="translate(0.0814819 40.3228)" fill="#E69C00"/>
<path d="M9.32153 10.9564L17.9403 10.9705C19.3215 6.7096 18.6668 2.6559 15.9617 0.879866C12.3486 -1.49203 6.44694 1.09662 2.77955 6.66159C-0.887846 12.2266 -0.931757 18.6607 2.68134 21.0328C5.38668 22.8089 9.37522 21.8032 12.748 18.8498L9.32153 10.9564Z" transform="translate(35.3854 31.9822)" fill="black"/>
<path d="M9.32101 10.9562L0.702224 10.9421C-0.678985 15.203 -0.024308 19.2567 2.68083 21.0327C6.29393 23.4046 12.1956 20.816 15.863 15.251C19.5304 9.68602 19.5743 3.25185 15.9612 0.879752C13.2559 -0.896284 9.26732 0.109373 5.89453 3.06279L9.32101 10.9562Z" transform="translate(12.772 17.1362)" fill="black"/>
</svg>
