<svg width="133" height="139" viewBox="0 0 133 139" fill="none" xmlns="http://www.w3.org/2000/svg">
<path d="M80.7037 38.7179L13.4034 0L0.0308361 7.7439L0 55.1108L47.3783 82.3674L58.2599 101.149L71.6325 93.4055L71.6384 91.3164L80.6728 86.0848L80.7037 38.7179Z" transform="translate(51.1416 36.8508)" fill="#EEBD56"/>
<path d="M0.0308361 7.74363L13.4034 0L13.3726 47.3669L0 55.1105L0.0308361 7.74363Z" transform="translate(118.442 75.5688)" fill="#EFB70F"/>
<path d="M0.0354344 7.7439L13.4083 0L13.3726 12.5011L0 20.2448L0.0354344 7.7439Z" transform="translate(109.401 117.755)" fill="#EFB70F"/>
<path d="M67.3311 38.7176L67.3003 86.0845L58.2953 80.9044L58.2599 93.4052L47.3783 74.6235L0 47.3669L0.0308361 0L67.3311 38.7176Z" transform="translate(51.1416 44.5947)" fill="#FECA2E"/>
<path d="M0 7.7439L13.3726 0L80.6728 38.7179L67.3003 46.4615L0 7.7439Z" transform="translate(51.1725 36.8508)" fill="#FEDB73"/>
<path d="M11.8329 0L0 6.85202V48.6736L7.96788 53.2578L7.9365 64.3185L17.628 58.8152L59.5512 82.9334L71.3841 76.0814V34.2598L11.8329 0Z" transform="translate(0.154724)" fill="#58948E"/>
<path d="M0 6.85202L11.8329 0L71.3841 34.2598L59.5512 41.1119L0 6.85202Z" transform="translate(0.154724)" fill="#A1CE47"/>
<path d="M0 6.85202L11.8329 0V41.8215L0 48.6736V6.85202Z" transform="translate(59.7059 34.2598)" fill="#559902"/>
<path d="M59.5512 34.2598V76.0814L17.628 51.9632L7.9365 57.4665L7.96788 46.4057L0 41.8215V0L59.5512 34.2598Z" transform="translate(0.154724 6.85205)" fill="#76BC21"/>
</svg>
