<svg width="36" height="34" viewBox="0 0 36 34" fill="none" xmlns="http://www.w3.org/2000/svg">
<path d="M0 11.2683V2.41463C0 1.08095 1.08719 0 2.42857 0H26.7143C28.0557 0 29.1429 1.08095 29.1429 2.41463V22.5366C29.1429 23.8703 28.0557 24.9512 26.7143 24.9512H14.5714" transform="translate(5.8573 2.4147)" stroke="white" stroke-width="2"/>
<path fill-rule="evenodd" clip-rule="evenodd" d="M29.1429 5.63415H0V1.60976C0 0.721171 0.724524 0 1.61905 0H27.5238C28.4175 0 29.1429 0.721171 29.1429 1.60976V5.63415Z" transform="translate(5.8573 2.4147)" stroke="white" stroke-width="2"/>
<path d="M0 0V4.82927" transform="translate(10.7144)" stroke="white" stroke-width="2"/>
<path d="M0 0V4.82927" transform="translate(15.5716)" stroke="white" stroke-width="2"/>
<path d="M0 0V4.82927" transform="translate(20.4287)" stroke="white" stroke-width="2"/>
<path d="M0 0V4.82927" transform="translate(25.2859)" stroke="white" stroke-width="2"/>
<path d="M0 0V4.82927" transform="translate(30.143)" stroke="white" stroke-width="2"/>
<path fill-rule="evenodd" clip-rule="evenodd" d="M17.8095 8.85366C17.8095 13.7433 13.8226 17.7073 8.90476 17.7073C3.98691 17.7073 0 13.7433 0 8.85366C0 3.96402 3.98691 0 8.90476 0C13.8226 0 17.8095 3.96402 17.8095 8.85366Z" transform="translate(1.00016 15.2928)" stroke="white" stroke-width="2"/>
<path d="M0 0V5.63415H4.85714" transform="translate(9.90492 18.5123)" stroke="white" stroke-width="2"/>
</svg>
